<?xml version="1.0" encoding="utf-8"?>
<!-- Generator: Adobe Illustrator 19.1.0, SVG Export Plug-In . SVG Version: 6.00 Build 0)  -->
<svg version="1.1" id="Layer_1" xmlns="http://www.w3.org/2000/svg" xmlns:xlink="http://www.w3.org/1999/xlink" x="0px" y="0px"
	 viewBox="0 0 283.5 283.5" style="enable-background:new 0 0 283.5 283.5;" xml:space="preserve">
<style type="text/css">
	.st0{fill:#0192C8;}
</style>
<g>
	<path class="st0" d="M32.2,176.7c49.9-38.3,66.1,2.3,45.2,23.2c-13.9,13.9-47.5,15.1-38.3,32.5c3.5,8.1,15.1,8.1,20.9,1.2
		c12.8-13.9,23.2-25.5,36-24.4c42.9,4.6,22,42.9,25.5,54.5c4.6,12.8,23.2,8.1,18.6-7c-2.3-9.3-8.1-23.2-1.2-36
		c5.8-7,17.4-10.4,23.2-5.8c13.9,8.1,13.9,36,31.3,40.6c8.1,1.2,19.7-5.8,20.9-12.8c2.3-9.3-7-15.1-12.8-17.4
		c-12.8-8.1-29-18.6-26.7-38.3c1.2-18.6,22-20.9,38.3-16.2c16.2,3.5,26.7,10.4,44.1,10.4c37.1,1.2,23.2-24.4,11.6-25.5
		c-13.9-1.2-22,9.3-51,5.8c-11.6-1.2-23.2-2.3-31.3-10.4c-16.2-17.4,0-32.5,19.7-34.8c19.7-3.5,38.3-4.6,51-9.3
		c18.6-5.8,16.2-23.2,8.1-29c-25.5-18.6-41.7,41.7-91.6,19.7c-7-3.5-15.1-9.3-10.4-18.6c3.5-10.4,15.1-15.1,25.5-25.5
		c23.2-23.2-10.4-45.2-22-23.2c-7,13.9-2.3,27.8-19.7,40.6c-10.4,7-23.2,5.8-33.6-1.2C96,57.2,104.1,41,96,34
		c-15.1-13.9-32.5,7-18.6,25.5c7,9.3,27.8,20.9,3.5,38.3c-23.2,16.2-44.1-4.6-53.3-8.1c-8.1-2.3-13.9,15.1,1.2,16.2
		c10.4,0,24.4-1.2,31.3,10.4c9.3,17.4,0,38.3-18.6,40.6c-9.3,1.2-30.2,0-37.1,10.4C-3.8,179,10.1,192.9,32.2,176.7z"/>
	<path class="st0" d="M54.2,268.3c-3.5,3.5-8.1,4.6-11.6,1.2c-4.6-2.3-4.6-8.1-1.2-11.6c2.3-3.5,8.1-4.6,11.6-1.2
		C56.5,259,56.5,264.8,54.2,268.3z"/>
	<path class="st0" d="M54.2,32.9c-4.6,7-13.9,8.1-20.9,2.3c-5.8-4.6-7-15.1-2.3-20.9c5.8-7,15.1-8.1,22-2.3
		C58.8,16.6,60,27.1,54.2,32.9z"/>
	<path class="st0" d="M256,249.7c-5.8,8.1-16.2,9.3-23.2,2.3c-7-5.8-8.1-16.2-2.3-23.2c5.8-7,16.2-8.1,23.2-2.3
		C261.8,232.3,261.8,242.8,256,249.7z"/>
</g>
</svg>
